<?xml version="1.0" encoding="UTF-8" standalone="no"?><!DOCTYPE svg PUBLIC "-//W3C//DTD SVG 1.1//EN" "http://www.w3.org/Graphics/SVG/1.1/DTD/svg11.dtd"><svg width="100%" height="100%" viewBox="0 0 49 62" version="1.1" xmlns="http://www.w3.org/2000/svg" xmlns:xlink="http://www.w3.org/1999/xlink" xml:space="preserve" xmlns:serif="http://www.serif.com/" style="fill-rule:evenodd;clip-rule:evenodd;stroke-linejoin:round;stroke-miterlimit:1.41421;"><g><path d="M47.987,0.849l0,23.467c0,9.132 -1.411,16.97 -5.384,23.184c-3.753,5.944 -9.752,10.369 -18.255,13.256c-8.503,-2.887 -14.502,-7.312 -18.255,-13.256c-3.973,-6.214 -5.384,-14.052 -5.384,-23.184l0,-23.467l47.278,0Z" style="fill:#fff;fill-rule:nonzero;"/><path d="M30.546,17.856l-1.432,0l0,-1.839c0,-0.404 0.284,-0.705 0.715,-0.705c0.432,0 0.717,0.301 0.717,0.705l0,1.839Zm0,5.432l-1.432,1.696l0,-3.507l1.432,0l0,1.811Zm0,14.682l-1.432,-1.702l0,-5.535l1.432,-1.697l0,8.934Zm0,7.513l-1.432,0l0,-3.498l1.432,1.692l0,1.806Zm-0.001,5.459c0,0.405 -0.285,0.705 -0.716,0.705c-0.432,0 -0.716,-0.3 -0.716,-0.705l0,-1.838l1.433,0l-0.001,1.838Zm-2.034,-33.086l-1.974,0l0,-1.657c0,-0.53 0.426,-0.935 0.986,-0.935c0.562,0 0.988,0.405 0.988,0.935l0,1.657Zm0,7.843l-1.974,2.344l0,-6.566l1.974,0l0,4.222Zm0,9.855l-1.734,-2.057l1.734,-2.048l0,4.105Zm0,9.929l-1.974,0l0,-6.549l1.974,2.336l0,4.213Zm0,5.278c0,0.529 -0.427,0.935 -0.988,0.935c-0.561,0 -0.986,-0.406 -0.986,-0.935l0,-1.657l1.974,0l0,1.657Zm-2.577,-32.905l-3.149,0l0,-0.999c0,-0.963 0.5,-1.623 1.575,-1.623c1.075,0 1.574,0.66 1.574,1.623l0,0.999Zm0,10.898l-1.577,1.871l-1.572,-1.869l0,-7.279l3.149,0l0,7.277Zm0,16.729l-3.149,0l0,-7.26l1.572,-1.864l1.577,1.865l0,7.259Zm0,4.619c0,0.963 -0.5,1.623 -1.575,1.623c-1.075,0 -1.575,-0.66 -1.575,-1.623l0.001,-0.998l3.149,0l0,0.998Zm-1.574,7.378c-0.526,0 -0.854,-0.376 -0.854,-0.859l-0.001,-4.469c0.252,0.093 0.568,0.153 0.854,0.153c0.286,0 0.602,-0.06 0.854,-0.154l0,4.47c0,0.483 -0.327,0.859 -0.853,0.859Zm-2.178,-39.624l-1.974,0l0.001,-1.657c0,-0.53 0.425,-0.935 0.987,-0.935c0.561,0 0.986,0.405 0.986,0.935l0,1.657Zm0,10.19l-1.974,-2.348l0,-4.221l1.974,0l0,6.569Zm0,17.437l-1.974,0l0,-4.216l1.974,-2.332l0,6.548Zm-0.001,5.278c0,0.529 -0.425,0.935 -0.986,0.935c-0.561,0 -0.987,-0.406 -0.987,-0.935l0,-1.657l1.973,0l0,1.657Zm-2.576,-32.905l-1.432,0l0.001,-1.839c0,-0.404 0.284,-0.705 0.716,-0.705c0.431,0 0.716,0.301 0.716,0.705l-0.001,1.839Zm0,7.126l-1.432,-1.697l0,-1.808l1.432,0l0,3.505Zm0,11.292l-1.432,1.692l0,-8.917l1.432,1.689l0,5.536Zm0,9.209l-1.432,0l0,-1.818l1.432,-1.686l0,3.504Zm0,5.459c0,0.405 -0.284,0.705 -0.716,0.705c-0.432,0 -0.716,-0.3 -0.716,-0.705l0,-1.838l1.432,0l0,1.838Zm0.603,-19.491l1.729,2.046l-1.729,2.061l0,-4.107Zm5.005,-20.343l0,3.7c-0.251,-0.093 -0.567,-0.154 -0.853,-0.154c-0.286,0 -0.602,0.061 -0.854,0.154l0,-3.7l1.707,0Zm-9.112,-3.063c0,-1.491 0.398,-2.836 0.972,-4.135c1.918,2.389 4.023,3.383 6.722,3.383l3.113,0l0,3.215l-3.3,0c-2.506,0 -4.443,0.658 -6.268,2.45c-0.866,-1.517 -1.239,-3.07 -1.239,-4.913Zm7.405,-2.893c0,-0.483 0.328,-0.83 0.854,-0.83c0.526,0 0.853,0.347 0.853,0.83l0,1.541l-1.707,0l0,-1.541Zm-22.797,-4.303l0,23.467c0,9.132 1.411,16.97 5.384,23.184c3.753,5.944 9.752,10.369 18.255,13.256c8.503,-2.887 14.502,-7.312 18.255,-13.256c3.973,-6.214 5.384,-14.052 5.384,-23.184l0,-23.467l-47.278,0Z" style="fill:#00a94f;fill-rule:nonzero;"/><path d="M47.987,0.849l0,23.467c0,9.132 -1.411,16.97 -5.384,23.184c-3.753,5.944 -9.752,10.369 -18.255,13.256c-8.503,-2.887 -14.502,-7.312 -18.255,-13.256c-3.973,-6.214 -5.384,-14.052 -5.384,-23.184l0,-23.467l47.278,0Zm-47.987,-0.705l0,24.172c0,16.373 4.382,30.476 24.348,37.184c19.966,-6.708 24.348,-20.811 24.348,-37.184l0,-24.172l-48.696,0Z" style="fill:#231f20;fill-rule:nonzero;"/><path d="M26.372,33.017l-1.614,-1.916l6.391,-7.556l0,3.804l-4.777,5.668Zm4.776,15.483l-13.578,0l0,-2.416l13.578,0l0,2.416Zm-0.603,2.442c0,0.405 -0.285,0.705 -0.716,0.705c-0.432,0 -0.716,-0.3 -0.716,-0.705l0,-1.838l1.433,0l-0.001,1.838Zm-2.034,-0.181c0,0.529 -0.427,0.935 -0.988,0.935c-0.561,0 -0.986,-0.406 -0.986,-0.935l0,-1.657l1.974,0l0,1.657Zm-2.577,-0.659c0,0.963 -0.5,1.623 -1.575,1.623c-1.075,0 -1.575,-0.66 -1.575,-1.623l0.001,-0.998l3.149,0l0,0.998Zm-1.574,7.378c-0.526,0 -0.854,-0.376 -0.854,-0.859l-0.001,-4.469c0.252,0.093 0.568,0.153 0.854,0.153c0.286,0 0.602,-0.06 0.854,-0.154l0,4.47c0,0.483 -0.327,0.859 -0.853,0.859Zm-2.179,-6.719c0,0.529 -0.425,0.935 -0.986,0.935c-0.561,0 -0.987,-0.406 -0.987,-0.935l0,-1.657l1.973,0l0,1.657Zm-2.576,0.181c0,0.405 -0.284,0.705 -0.716,0.705c-0.432,0 -0.716,-0.3 -0.716,-0.705l0,-1.838l1.432,0l0,1.838Zm3.18,-12.719l1.572,-1.864l1.577,1.865l0,7.259l-3.149,0l0,-7.26Zm-2.577,-2.665l0,-4.107l1.729,2.046l-1.729,2.061Zm-2.035,2.408l0,-8.917l1.432,1.689l0,5.536l-1.432,1.692Zm1.432,4.013l0,3.504l-1.432,0l0,-1.818l1.432,-1.686Zm2.577,-3.044l0,6.548l-1.974,0l0,-4.216l1.974,-2.332Zm-4.611,4.529l0,-3.866l4.764,-5.631l1.621,1.917l-6.385,7.58Zm10.94,-2.194l0,4.213l-1.974,0l0,-6.549l1.974,2.336Zm2.035,2.407l0,1.806l-1.432,0l0,-3.498l1.432,1.692Zm-1.432,-7.409l0,-5.535l1.432,-1.697l0,8.934l-1.432,-1.702Zm-2.337,-2.771l1.734,-2.048l0,4.105l-1.734,-2.057Zm-9.208,-6.148l0,-3.799l13.578,16.058l0,3.86l-13.578,-16.119Zm2.036,-5.872l0,3.505l-1.432,-1.697l0,-1.808l1.432,0Zm2.577,0l0,6.569l-1.974,-2.348l0,-4.221l1.974,0Zm3.752,0l0,7.277l-1.577,1.871l-1.572,-1.869l0,-7.279l3.149,0Zm2.577,0l0,4.222l-1.974,2.344l0,-6.566l1.974,0Zm2.035,0l0,1.811l-1.432,1.696l0,-3.507l1.432,0Zm-12.976,-0.604l0,-2.416l13.578,0l0,2.416l-13.578,0Zm0.604,-4.856c0,-0.404 0.284,-0.705 0.716,-0.705c0.431,0 0.716,0.301 0.716,0.705l-0.001,1.839l-1.432,0l0.001,-1.839Zm2.035,0.182c0,-0.53 0.425,-0.935 0.987,-0.935c0.561,0 0.986,0.405 0.986,0.935l0,1.657l-1.974,0l0.001,-1.657Zm2.576,0.658c0,-0.963 0.5,-1.623 1.575,-1.623c1.075,0 1.574,0.66 1.574,1.623l0,0.999l-3.149,0l0,-0.999Zm2.428,-5.749l0,3.7c-0.251,-0.093 -0.567,-0.154 -0.853,-0.154c-0.286,0 -0.602,0.061 -0.854,0.154l0,-3.7l1.707,0Zm-7.873,1.85c-0.866,-1.517 -1.239,-3.07 -1.239,-4.913c0,-1.491 0.398,-2.836 0.972,-4.135c1.918,2.389 4.023,3.383 6.722,3.383l3.113,0l0,3.215l-3.3,0c-2.506,0 -4.443,0.658 -6.268,2.45Zm6.166,-7.806c0,-0.483 0.328,-0.83 0.854,-0.83c0.526,0 0.853,0.347 0.853,0.83l0,1.541l-1.707,0l0,-1.541Zm3.031,11.047c0,-0.53 0.426,-0.935 0.986,-0.935c0.562,0 0.988,0.405 0.988,0.935l0,1.657l-1.974,0l0,-1.657Zm2.577,-0.182c0,-0.404 0.284,-0.705 0.715,-0.705c0.432,0 0.717,0.301 0.717,0.705l0,1.839l-1.432,0l0,-1.839Zm2.638,11.6l0,-4.762c0,-0.162 -0.135,-0.288 -0.302,-0.288l-0.302,0l0,-1.09l0.3,0c0.167,0 0.301,-0.13 0.301,-0.29l0,-3.041c0,-0.16 -0.134,-0.29 -0.301,-0.29l-0.3,0l0,-1.839c0,-0.738 -0.533,-1.285 -1.324,-1.285c-0.445,0 -0.822,0.219 -1.054,0.53c-0.27,-0.352 -0.721,-0.579 -1.251,-0.579c-0.614,0 -1.166,0.376 -1.373,0.775c-0.068,-0.126 -0.212,-0.286 -0.32,-0.356l0,-3.994l1.704,0l0,-4.415l-1.704,0l0,-1.55c0,-0.818 -0.608,-1.411 -1.466,-1.411c-0.859,0 -1.467,0.593 -1.467,1.411l0,1.486c-2.229,-0.255 -4.247,-1.576 -5.92,-4.048c-0.942,1.647 -1.56,3.419 -1.56,5.464c0,2.353 0.592,4.214 1.807,6.003c1.494,-1.693 3.381,-2.748 5.673,-2.9l0,3.959c-0.108,0.07 -0.252,0.225 -0.32,0.351c-0.206,-0.399 -0.759,-0.775 -1.372,-0.775c-0.531,0 -0.982,0.227 -1.251,0.579c-0.233,-0.311 -0.61,-0.53 -1.055,-0.53c-0.791,0 -1.324,0.547 -1.324,1.285l0,1.839l-0.001,0l-0.302,0c-0.167,0 -0.302,0.13 -0.302,0.29l0,3.041c0,0.16 0.135,0.29 0.302,0.29l0.302,0l0,1.09l-0.302,0c-0.167,0 -0.302,0.131 -0.302,0.293l0,4.762l0.604,0.712l0,10.343l-0.602,0.717l0,4.703c0,0.161 0.135,0.292 0.302,0.292l0.3,0l0,1.094l-0.302,0c-0.167,0 -0.302,0.13 -0.302,0.29l0,3.041c0,0.16 0.135,0.29 0.302,0.29l0.302,0l0.001,1.839c0,0.737 0.533,1.285 1.323,1.285c0.445,0 0.822,-0.219 1.055,-0.531c0.269,0.352 0.72,0.579 1.251,0.579c0.613,0 1.166,-0.375 1.372,-0.774c0.068,0.125 0.213,0.281 0.321,0.351l0,4.778c0,0.83 0.608,1.445 1.467,1.445c0.858,0 1.466,-0.615 1.466,-1.445l-0.001,-4.773c0.108,-0.071 0.252,-0.231 0.32,-0.356c0.207,0.399 0.759,0.774 1.373,0.774c0.53,0 0.981,-0.227 1.251,-0.579c0.232,0.312 0.609,0.531 1.055,0.531c0.79,0 1.323,-0.548 1.323,-1.285l0,-1.839l0.301,0c0.167,0 0.301,-0.13 0.301,-0.29l0,-3.041c0,-0.16 -0.134,-0.29 -0.301,-0.29l-0.3,0l0,-1.094l0.3,0c0.167,0 0.301,-0.131 0.301,-0.292l0,-4.699l-0.601,-0.712l0,-10.356l0.604,-0.713Z" style="fill:#231f20;fill-rule:nonzero;"/></g></svg>
